<svg id="arrow-left" width="7" height="9" viewBox="0 0 7 9" fill="none" xmlns="http://www.w3.org/2000/svg">
<path d="M0.944605 3.4002L0.950718 3.39393L0.956607 3.38744C1.32573 2.98098 2.02428 2.41465 2.78795 1.88531C3.55136 1.35614 4.3254 0.901635 4.83012 0.698268L4.83016 0.698361L4.83934 0.694445C4.9071 0.665556 5.04003 0.61522 5.18119 0.571599C5.32581 0.526911 5.43223 0.504193 5.48132 0.500091C5.61125 0.501917 5.73419 0.531367 5.85588 0.591925C6.003 0.679493 6.12099 0.81425 6.18635 0.968949C6.20654 1.02484 6.24286 1.16726 6.2795 1.33182C6.29674 1.40927 6.31191 1.48165 6.32269 1.53487C6.32679 1.55509 6.33016 1.57211 6.33272 1.58525L6.33888 1.61927C6.43995 2.17759 6.5 3.12151 6.5 4.1944C6.5 5.1935 6.44261 6.09319 6.36023 6.67441C6.35734 6.68665 6.3548 6.69859 6.35289 6.70772C6.34799 6.73122 6.34185 6.76265 6.33547 6.79526L6.33512 6.79707L6.33508 6.79727C6.3215 6.86672 6.30404 6.95608 6.28346 7.05153C6.26272 7.14774 6.23997 7.24476 6.2166 7.32844C6.20496 7.37013 6.19405 7.40533 6.18419 7.43347C6.17932 7.44738 6.17515 7.45831 6.17176 7.46654L6.16778 7.47582C6.16701 7.47751 6.16655 7.47846 6.16641 7.47874C6.1664 7.47875 6.1664 7.47876 6.1664 7.47876C6.02897 7.74713 5.76907 7.9 5.50794 7.9H5.48063C5.45851 7.89832 5.40766 7.89038 5.32578 7.86877C5.24294 7.8469 5.15072 7.81714 5.06198 7.78555C5.02814 7.7735 4.9956 7.76147 4.9652 7.74991L4.73986 7.65379C4.25814 7.44831 3.50692 7.0081 2.7622 6.49395C2.01557 5.97848 1.32584 5.4233 0.948006 5.00316L0.940361 4.99466L0.932428 4.98661L0.932424 4.98661L0.932391 4.98657L0.932366 4.98655L0.932336 4.98652L0.932191 4.98637L0.930758 4.98491L0.924312 4.9783L0.89904 4.9521C0.87732 4.92942 0.847428 4.89779 0.81482 4.86212C0.743684 4.78432 0.680493 4.70987 0.650976 4.66684L0.645463 4.65881L0.639642 4.65099C0.550658 4.53155 0.5 4.37359 0.5 4.2049C0.5 4.01976 0.55263 3.85755 0.644446 3.72749C0.665497 3.70453 0.691697 3.67525 0.717762 3.64612C0.731054 3.63127 0.744311 3.61645 0.756832 3.60253C0.815459 3.53737 0.882201 3.46426 0.944605 3.4002Z" stroke="#222F5D"/>
</svg>
