<svg width="23" height="25" viewBox="0 0 23 25" fill="none" xmlns="http://www.w3.org/2000/svg">
<circle cx="11.7871" cy="10.9272" r="10.5263" fill="#AFAFAF" fill-opacity="0.29"/>
<path d="M14.3718 23.97H1.44473C1.17972 23.97 0.959961 23.7503 0.959961 23.4853C0.959961 23.2202 1.17972 23.0005 1.44473 23.0005H14.3718C14.6368 23.0005 14.8565 23.2202 14.8565 23.4853C14.8565 23.7503 14.6368 23.97 14.3718 23.97Z" fill="#222F5D"/>
<path d="M2.54375 23.4846H1.57422L1.60654 15.709C1.60654 15.1596 1.85861 14.649 2.29167 14.3129L6.81614 10.7903C7.45603 10.2926 8.35446 10.2926 9.00081 10.7903L13.5253 14.3064C13.9519 14.6425 14.2104 15.1661 14.2104 15.709V23.4846H13.2409V15.7155C13.2409 15.4698 13.1245 15.2307 12.9306 15.0756L8.40616 11.5594C8.1153 11.3332 7.70811 11.3332 7.41078 11.5594L2.88632 15.082C2.69241 15.2307 2.57607 15.4698 2.57607 15.7155L2.54375 23.4846Z" fill="#222F5D"/>
<path d="M11.1407 23.9695H4.67715C4.41214 23.9695 4.19238 23.7498 4.19238 23.4848V17.3444C4.19238 16.543 4.8452 15.8901 5.64668 15.8901H10.1711C10.9726 15.8901 11.6254 16.543 11.6254 17.3444V23.4848C11.6254 23.7498 11.4057 23.9695 11.1407 23.9695ZM5.16191 23H10.6559V17.3444C10.6559 17.0794 10.4361 16.8597 10.1711 16.8597H5.64668C5.38167 16.8597 5.16191 17.0794 5.16191 17.3444V23Z" fill="#222F5D"/>
<path d="M6.61611 21.2223C6.35111 21.2223 6.13135 21.0025 6.13135 20.7375V19.768C6.13135 19.503 6.35111 19.2832 6.61611 19.2832C6.88112 19.2832 7.10088 19.503 7.10088 19.768V20.7375C7.10088 21.0025 6.88112 21.2223 6.61611 21.2223Z" fill="#222F5D"/>
<path d="M8.87792 14.5975H6.93887C6.67386 14.5975 6.4541 14.3777 6.4541 14.1127C6.4541 13.8477 6.67386 13.6279 6.93887 13.6279H8.87792C9.14293 13.6279 9.36269 13.8477 9.36269 14.1127C9.36269 14.3777 9.14293 14.5975 8.87792 14.5975Z" fill="#222F5D"/>
</svg>
