<svg id="delivery-icon" width="20" height="21" viewBox="0 0 20 21" fill="none" xmlns="http://www.w3.org/2000/svg">
<circle cx="12" cy="8" r="8" fill="#E2E2E2"/>
<path d="M10.0002 6.33301V12.9997C10.0002 13.733 9.40016 14.333 8.66683 14.333H1.3335V10.0797C1.82016 10.6597 2.56685 11.0197 3.39351 10.9997C4.06685 10.9863 4.6735 10.7263 5.12683 10.293C5.3335 10.1197 5.50684 9.89967 5.64018 9.65967C5.88018 9.253 6.0135 8.77299 6.00016 8.27299C5.98016 7.49299 5.63351 6.80634 5.09351 6.33301H10.0002Z" stroke="#222F5D" stroke-width="1.125" stroke-linecap="round" stroke-linejoin="round"/>
<path d="M14.6668 14.333V16.333C14.6668 17.4397 13.7735 18.333 12.6668 18.333H12.0002C12.0002 17.5997 11.4002 16.9997 10.6668 16.9997C9.9335 16.9997 9.3335 17.5997 9.3335 18.333H6.66683C6.66683 17.5997 6.06683 16.9997 5.3335 16.9997C4.60016 16.9997 4.00016 17.5997 4.00016 18.333H3.3335C2.22683 18.333 1.3335 17.4397 1.3335 16.333V14.333H8.66683C9.40016 14.333 10.0002 13.733 10.0002 12.9997V8.33301H11.2268C11.7068 8.33301 12.1468 8.59301 12.3868 9.00635L13.5268 10.9997H12.6668C12.3002 10.9997 12.0002 11.2997 12.0002 11.6663V13.6663C12.0002 14.033 12.3002 14.333 12.6668 14.333H14.6668Z" stroke="#222F5D" stroke-width="1.125" stroke-linecap="round" stroke-linejoin="round"/>
<path d="M5.33333 19.6667C6.06971 19.6667 6.66667 19.0697 6.66667 18.3333C6.66667 17.597 6.06971 17 5.33333 17C4.59695 17 4 17.597 4 18.3333C4 19.0697 4.59695 19.6667 5.33333 19.6667Z" stroke="#222F5D" stroke-width="1.125" stroke-linecap="round" stroke-linejoin="round"/>
<path d="M10.6668 19.6667C11.4032 19.6667 12.0002 19.0697 12.0002 18.3333C12.0002 17.597 11.4032 17 10.6668 17C9.93045 17 9.3335 17.597 9.3335 18.3333C9.3335 19.0697 9.93045 19.6667 10.6668 19.6667Z" stroke="#222F5D" stroke-width="1.125" stroke-linecap="round" stroke-linejoin="round"/>
<path d="M14.6667 13V14.3333H12.6667C12.3 14.3333 12 14.0333 12 13.6667V11.6667C12 11.3 12.3 11 12.6667 11H13.5267L14.6667 13Z" stroke="#222F5D" stroke-width="1.125" stroke-linecap="round" stroke-linejoin="round"/>
<path d="M6.00033 8.33268C6.00033 9.13268 5.647 9.84602 5.09367 10.3327C4.62034 10.746 4.00699 10.9993 3.33366 10.9993C1.86033 10.9993 0.666992 9.80602 0.666992 8.33268C0.666992 7.49268 1.05366 6.73935 1.66699 6.25269C2.12699 5.88602 2.70699 5.66602 3.33366 5.66602C4.80699 5.66602 6.00033 6.85935 6.00033 8.33268Z" stroke="#222F5D" stroke-width="1.125" stroke-miterlimit="10" stroke-linecap="round" stroke-linejoin="round"/>
<path d="M3.50033 7.49902V8.49902L2.66699 8.99902" stroke="#222F5D" stroke-width="1.125" stroke-miterlimit="10" stroke-linecap="round" stroke-linejoin="round"/>
</svg>
