                  <svg
                    width="28"
                    height="28"
                    viewBox="0 0 28 28"
                    fill="none"
                    xmlns="http://www.w3.org/2000/svg"
                  >
                    <path
                      d="M19.8334 4.08301H8.16671C4.66671 4.08301 2.33337 5.83301 2.33337 9.91634V18.083C2.33337 22.1663 4.66671 23.9163 8.16671 23.9163H19.8334C23.3334 23.9163 25.6667 22.1663 25.6667 18.083V9.91634C25.6667 5.83301 23.3334 4.08301 19.8334 4.08301ZM20.3817 11.188L16.73 14.1047C15.96 14.723 14.98 15.0263 14 15.0263C13.02 15.0263 12.0284 14.723 11.27 14.1047L7.61837 11.188C7.24504 10.8847 7.18671 10.3247 7.47837 9.95134C7.78171 9.57801 8.33004 9.50801 8.70337 9.81134L12.355 12.728C13.2417 13.4397 14.7467 13.4397 15.6334 12.728L19.285 9.81134C19.6584 9.50801 20.2184 9.56634 20.51 9.95134C20.8134 10.3247 20.755 10.8847 20.3817 11.188Z"
                      fill="#FF755C"
                    />
                  </svg>