<svg width="42" height="42" viewBox="0 0 42 42" fill="none" xmlns="http://www.w3.org/2000/svg">
<rect width="42" height="42" rx="4" fill="#FFCBCB"/>
<path d="M17.7704 15H35.8957" stroke="#FF755C" stroke-width="1.5" stroke-linecap="round"/>
<path opacity="0.34" d="M20.7913 20H32.8748" stroke="#FF755C" stroke-width="1.5" stroke-linecap="round"/>
<path d="M24.8192 25H28.847" stroke="#FF755C" stroke-width="1.5" stroke-linecap="round"/>
<path d="M8.70745 30.3958C8.59584 30.3958 8.48424 30.355 8.39613 30.2675L4.83064 26.7267C4.66029 26.5575 4.66029 26.2775 4.83064 26.1083C5.00098 25.9392 5.28293 25.9392 5.45328 26.1083L8.70745 29.34L11.9616 26.1083C12.132 25.9392 12.4139 25.9392 12.5843 26.1083C12.7546 26.2775 12.7546 26.5575 12.5843 26.7267L9.01876 30.2675C8.93066 30.355 8.81905 30.3958 8.70745 30.3958Z" fill="#FF755C"/>
<path d="M8.77039 29.604C8.49515 29.604 8.26691 29.2701 8.26691 28.8675V12.3405C8.26691 11.9379 8.49515 11.604 8.77039 11.604C9.04562 11.604 9.27387 11.9379 9.27387 12.3405V28.8675C9.27387 29.2701 9.04562 29.604 8.77039 29.604Z" fill="#FF755C"/>
</svg>
